<svg width="200" height="69" viewBox="0 0 200 69" fill="none" xmlns="http://www.w3.org/2000/svg">
<path d="M25.6987 42.9534C24.5829 43.6601 23.2264 44.0996 21.629 44.2717C21.11 44.344 20.7828 44.4229 20.6476 44.5086C20.394 44.6692 20.3992 44.9108 20.6631 45.2333L20.9187 45.5612L20.4369 45.8664L17.0862 42.1467L17.5427 41.8576C18.7248 42.9046 19.969 43.4458 21.2754 43.4812C22.5853 43.4911 23.7982 43.1427 24.914 42.4359C26.0467 41.7185 26.6597 40.9104 26.753 40.0118C26.8632 39.1024 26.5906 38.2839 25.9351 37.5563C24.8918 36.3981 23.3419 36.0039 21.2853 36.3736L17.2042 37.1045C15.9703 37.3264 14.8509 37.2775 13.846 36.9578C12.8278 36.6232 11.9976 36.0996 11.3556 35.3868C10.3792 34.3028 9.95737 33.1124 10.0902 31.8155C10.2097 30.5038 11.0471 29.3554 12.6025 28.3702C13.5154 27.792 14.6945 27.465 16.1396 27.3892C16.608 27.3491 16.9013 27.2915 17.0197 27.2166C17.2395 27.0774 17.2173 26.8465 16.9534 26.5239L16.5775 26.0624L17.0593 25.7572L20.5303 29.6106L20.0738 29.8997C18.9086 28.842 17.7303 28.2707 16.5387 28.1859C15.3506 28.0755 14.2494 28.3415 13.2351 28.984C12.2376 29.6158 11.6806 30.3534 11.5641 31.1968C11.4511 32.0146 11.6755 32.7354 12.2373 33.3591C12.7857 33.9679 13.4666 34.3995 14.2799 34.654C15.1102 34.8977 16.0243 34.925 17.0223 34.736L21.1288 33.9891C22.5043 33.7475 23.7399 33.7928 24.8356 34.1249C25.9348 34.4315 26.8189 34.956 27.4876 35.6984C28.4373 36.7527 28.7781 37.9711 28.51 39.3537C28.2419 40.7362 27.3048 41.9361 25.6987 42.9534Z" fill="#3D0EFB"/>
<path d="M21.629 44.2717L21.4467 43.3636L21.4277 43.3656L21.4089 43.3682L21.629 44.2717ZM20.6631 45.2333L21.554 44.7522L21.5468 44.743L21.5393 44.7339L20.6631 45.2333ZM20.9187 45.5612L21.5875 46.3037L22.3745 45.8052L21.8095 45.0801L20.9187 45.5612ZM20.4369 45.8664L19.5916 46.4018L20.2603 47.1443L21.1056 46.6089L20.4369 45.8664ZM17.0862 42.1467L16.4174 41.4042L15.5721 41.9396L16.2409 42.6821L17.0862 42.1467ZM17.5427 41.8576L18.3046 41.2396L17.6262 40.6386L16.8739 41.1151L17.5427 41.8576ZM21.2754 43.4812L21.289 44.3961L21.3015 44.3965L21.3139 44.3966L21.2754 43.4812ZM26.753 40.0118L25.6807 39.8781L25.6799 39.8847L25.6792 39.8912L26.753 40.0118ZM21.2853 36.3736L21.5523 37.2697L21.5532 37.2695L21.2853 36.3736ZM17.2042 37.1045L16.9372 36.2085L16.9364 36.2086L17.2042 37.1045ZM13.846 36.9578L13.4966 37.8097L13.5079 37.8133L13.846 36.9578ZM10.0902 31.8155L11.1641 31.935L11.1649 31.9264L10.0902 31.8155ZM16.1396 27.3892L16.2537 28.3028L16.2743 28.3017L16.2949 28.3L16.1396 27.3892ZM16.9534 26.5239L16.0757 27.0216L16.0772 27.0234L16.9534 26.5239ZM16.5775 26.0624L15.9087 25.3199L15.1046 25.8292L15.6998 26.5601L16.5775 26.0624ZM17.0593 25.7572L17.9046 25.2218L17.2358 24.4793L16.3905 25.0148L17.0593 25.7572ZM20.5303 29.6106L21.1991 30.3531L22.0444 29.8176L21.3756 29.0752L20.5303 29.6106ZM20.0738 29.8997L19.3021 30.509L19.9806 31.1248L20.7426 30.6422L20.0738 29.8997ZM16.5387 28.1859L16.4689 29.0958L16.4826 29.0971L16.4963 29.098L16.5387 28.1859ZM14.2799 34.654L13.9476 35.5113L13.9582 35.5146L13.9689 35.5177L14.2799 34.654ZM17.0223 34.736L16.752 33.8405L16.7434 33.8421L17.0223 34.736ZM21.1288 33.9891L20.8658 33.0923L20.8585 33.0936L21.1288 33.9891ZM24.8356 34.1249L24.5139 34.9855L24.5274 34.9896L24.541 34.9934L24.8356 34.1249ZM28.51 39.3537L27.4462 39.166L27.4462 39.166L28.51 39.3537ZM25.0299 42.2109C24.0742 42.8163 22.8913 43.2079 21.4467 43.3636L21.8114 45.1799C23.5614 44.9913 25.0916 44.504 26.3675 43.6958L25.0299 42.2109ZM21.4089 43.3682C21.1285 43.4072 20.8739 43.4515 20.6575 43.5037C20.469 43.5492 20.202 43.6248 19.9788 43.7661L21.3163 45.2511C21.2606 45.2864 21.2249 45.2972 21.2388 45.2922C21.248 45.289 21.2765 45.2797 21.3313 45.2665C21.442 45.2398 21.6105 45.2085 21.8492 45.1753L21.4089 43.3682ZM19.9788 43.7661C19.6292 43.9876 19.3739 44.3382 19.3836 44.7862C19.3919 45.1728 19.5971 45.5008 19.787 45.7328L21.5393 44.7339C21.4653 44.6434 21.5358 44.6893 21.539 44.8343C21.5407 44.9177 21.5188 45.0108 21.4653 45.0973C21.4141 45.1803 21.3518 45.2286 21.3163 45.2511L19.9788 43.7661ZM19.7723 45.7145L20.0279 46.0424L21.8095 45.0801L21.554 44.7522L19.7723 45.7145ZM20.2499 44.8188L19.7681 45.124L21.1056 46.6089L21.5875 46.3037L20.2499 44.8188ZM21.2822 45.331L17.9315 41.6113L16.2409 42.6821L19.5916 46.4018L21.2822 45.331ZM17.755 42.8892L18.2115 42.6L16.8739 41.1151L16.4174 41.4042L17.755 42.8892ZM16.7808 42.4756C18.108 43.6511 19.6167 44.3508 21.289 44.3961L21.2618 42.5663C20.3213 42.5408 19.3416 42.1581 18.3046 41.2396L16.7808 42.4756ZM21.3139 44.3966C22.8731 44.4083 24.3032 43.9889 25.5828 43.1784L24.2452 41.6935C23.2932 42.2965 22.2975 42.5739 21.2369 42.5659L21.3139 44.3966ZM25.5828 43.1784C26.8629 42.3676 27.6994 41.3593 27.8267 40.1323L25.6792 39.8912C25.62 40.4616 25.2305 41.0694 24.2452 41.6935L25.5828 43.1784ZM27.8253 40.1455C27.9632 39.0068 27.6147 37.9471 26.7804 37.0209L25.0898 38.0917C25.5664 38.6208 25.7631 39.198 25.6807 39.8781L27.8253 40.1455ZM26.7804 37.0209C26.1203 36.288 25.2728 35.7744 24.2567 35.516C23.2584 35.2621 22.1657 35.2712 21.0175 35.4777L21.5532 37.2695C22.4615 37.1062 23.1721 37.1277 23.7237 37.268C24.2575 37.4037 24.7067 37.6664 25.0898 38.0917L26.7804 37.0209ZM21.0183 35.4776L16.9372 36.2085L17.4712 38.0006L21.5523 37.2697L21.0183 35.4776ZM16.9364 36.2086C15.8611 36.4019 14.9564 36.348 14.1841 36.1023L13.5079 37.8133C14.7453 38.207 16.0794 38.2508 17.4721 38.0004L16.9364 36.2086ZM14.1954 36.1059C13.3644 35.8329 12.7094 35.4159 12.2009 34.8514L10.5103 35.9222C11.2859 36.7832 12.2911 37.4136 13.4966 37.8096L14.1954 36.1059ZM12.2009 34.8514C11.3908 33.9521 11.0555 32.995 11.1641 31.935L9.01637 31.696C8.85924 33.2297 9.36746 34.6535 10.5103 35.9222L12.2009 34.8514ZM11.1649 31.9264C11.2554 30.9336 11.8828 29.9921 13.2713 29.1127L11.9337 27.6278C10.2114 28.7186 9.16406 30.074 9.01554 31.7046L11.1649 31.9264ZM13.2713 29.1127C13.989 28.6581 14.961 28.3706 16.2537 28.3028L16.0256 26.4755C14.428 26.5593 13.0418 26.9259 11.9337 27.6278L13.2713 29.1127ZM16.2949 28.3C16.552 28.278 16.7909 28.2488 16.9975 28.2083C17.1706 28.1744 17.4509 28.1095 17.6885 27.959L16.3509 26.4741C16.3902 26.4492 16.4228 26.4337 16.4419 26.4254C16.4615 26.4169 16.4743 26.4126 16.4774 26.4117C16.4819 26.4102 16.4671 26.4151 16.4243 26.4235C16.3376 26.4405 16.1957 26.4603 15.9844 26.4784L16.2949 28.3ZM17.6885 27.959C18.0707 27.7169 18.2836 27.3376 18.2422 26.9054C18.208 26.5477 18.0079 26.2424 17.8295 26.0244L16.0772 27.0234C16.1126 27.0667 16.123 27.0866 16.1221 27.0848C16.1216 27.0838 16.1004 27.0436 16.0936 26.9726C16.0862 26.8956 16.0973 26.7928 16.1541 26.6865C16.2103 26.5813 16.2897 26.5128 16.3509 26.4741L17.6885 27.959ZM17.831 26.0263L17.4551 25.5647L15.6998 26.5601L16.0757 27.0216L17.831 26.0263ZM17.2462 26.8049L17.7281 26.4997L16.3905 25.0148L15.9087 25.3199L17.2462 26.8049ZM16.214 26.2926L19.685 30.146L21.3756 29.0752L17.9046 25.2218L16.214 26.2926ZM19.8615 28.8681L19.405 29.1572L20.7426 30.6422L21.1991 30.3531L19.8615 28.8681ZM20.8455 29.2904C19.5651 28.1282 18.1421 27.3849 16.581 27.2737L16.4963 29.098C17.3184 29.1566 18.2521 29.5558 19.3021 30.509L20.8455 29.2904ZM16.6085 27.276C15.1303 27.1386 13.7702 27.479 12.5663 28.2416L13.9038 29.7265C14.7286 29.2041 15.571 29.0124 16.4689 29.0958L16.6085 27.276ZM12.5663 28.2416C11.407 28.9759 10.6513 29.9081 10.4935 31.0504L12.6347 31.3432C12.7099 30.7988 13.0682 30.2558 13.9038 29.7265L12.5663 28.2416ZM10.4935 31.0504C10.3503 32.0874 10.6382 33.0576 11.392 33.8945L13.0826 32.8237C12.7129 32.4131 12.552 31.9419 12.6347 31.3432L10.4935 31.0504ZM11.392 33.8945C12.0677 34.6446 12.9247 35.1913 13.9476 35.5113L14.6123 33.7966C14.0085 33.6077 13.5037 33.2911 13.0826 32.8237L11.392 33.8945ZM13.9689 35.5177C15.0251 35.8278 16.1469 35.8485 17.3012 35.6299L16.7434 33.8421C15.9016 34.0016 15.1953 33.9676 14.591 33.7902L13.9689 35.5177ZM17.2926 35.6315L21.399 34.8845L20.8585 33.0936L16.752 33.8405L17.2926 35.6315ZM21.3918 34.8858C22.6198 34.6702 23.6479 34.723 24.5139 34.9855L25.1573 33.2643C23.8318 32.8625 22.3887 32.8248 20.8658 33.0923L21.3918 34.8858ZM24.541 34.9934C25.4365 35.2431 26.1227 35.6569 26.6423 36.2339L28.3329 35.163C27.5151 34.255 26.4332 33.6198 25.1302 33.2564L24.541 34.9934ZM26.6423 36.2339C27.3865 37.06 27.6702 38.0109 27.4462 39.166L29.5738 39.5413C29.886 37.9314 29.4881 36.4455 28.3329 35.163L26.6423 36.2339ZM27.4462 39.166C27.2309 40.2764 26.4763 41.2948 25.0299 42.2109L26.3675 43.6958C28.1333 42.5774 29.2529 41.196 29.5738 39.5413L27.4462 39.166Z" fill="#3D0EFB"/>
<path d="M38.2794 20.2375L38.7119 20.1129L39.7968 23.1011L42.6802 22.2706L42.8644 22.778L39.981 23.6085L43.4504 33.1648C43.8188 34.1797 44.2914 34.604 44.868 34.4379C45.1372 34.3604 45.3235 34.1718 45.427 33.8722C45.5498 33.5669 45.5532 33.2546 45.4372 32.9351C45.3212 32.6156 45.1832 32.3232 45.0232 32.0579L45.5403 31.8156C45.7196 32.0753 45.8706 32.3744 45.9934 32.7126C46.239 33.3892 46.222 33.9857 45.9424 34.5022C45.682 35.0131 45.2154 35.3654 44.5426 35.5592C43.8698 35.753 43.2264 35.6477 42.6124 35.2433C41.9917 34.8201 41.4868 34.0729 41.0979 33.0017L38.0482 24.6011C37.9526 24.338 37.7703 24.2452 37.5012 24.3227L36.146 24.713L35.9617 24.2056L37.3746 23.7987C37.9898 23.6215 38.2914 22.4344 38.2794 20.2375Z" fill="#3D0EFB"/>
<path d="M38.2794 20.2375L37.9383 19.2978L37.2557 19.4944L37.2595 20.1892L38.2794 20.2375ZM38.7119 20.1129L39.6731 19.8361L39.3319 18.8964L38.3708 19.1733L38.7119 20.1129ZM39.7968 23.1011L38.8356 23.3779L39.1767 24.3175L40.1379 24.0407L39.7968 23.1011ZM42.6802 22.2706L43.6414 21.9937L43.3002 21.0541L42.3391 21.3309L42.6802 22.2706ZM42.8644 22.778L43.2056 23.7176L44.1667 23.4408L43.8256 22.5012L42.8644 22.778ZM39.981 23.6085L39.6398 22.6688L38.6787 22.9456L39.0198 23.8853L39.981 23.6085ZM45.427 33.8722L44.4729 33.4765L44.4646 33.4974L44.4572 33.5187L45.427 33.8722ZM45.0232 32.0579L44.5363 31.173L43.6028 31.6104L44.1476 32.5137L45.0232 32.0579ZM45.5403 31.8156L46.3811 31.306L45.861 30.5522L45.0535 30.9306L45.5403 31.8156ZM45.9424 34.5022L45.032 34.0136L45.0266 34.0235L45.0215 34.0335L45.9424 34.5022ZM42.6124 35.2433L42.0529 36.0317L42.0601 36.0367L42.0674 36.0415L42.6124 35.2433ZM36.146 24.713L35.1848 24.9898L35.5259 25.9295L36.4871 25.6527L36.146 24.713ZM35.9617 24.2056L35.6206 23.2659L34.6594 23.5428L35.0006 24.4824L35.9617 24.2056ZM38.6205 21.1772L39.0531 21.0526L38.3708 19.1733L37.9383 19.2978L38.6205 21.1772ZM37.7508 20.3898L38.8356 23.3779L40.7579 22.8242L39.6731 19.8361L37.7508 20.3898ZM40.1379 24.0407L43.0214 23.2102L42.3391 21.3309L39.4556 22.1614L40.1379 24.0407ZM41.7191 22.5474L41.9033 23.0548L43.8256 22.5012L43.6414 21.9937L41.7191 22.5474ZM42.5233 21.8383L39.6398 22.6688L40.3221 24.5481L43.2056 23.7176L42.5233 21.8383ZM39.0198 23.8853L42.4892 33.4417L44.4115 32.888L40.9421 23.3316L39.0198 23.8853ZM42.4892 33.4417C42.6938 34.0053 42.9762 34.5561 43.4066 34.9426C43.635 35.1477 43.9177 35.3174 44.2531 35.4C44.5902 35.483 44.9163 35.462 45.2092 35.3776L44.5269 33.4983C44.5269 33.4983 44.5303 33.4973 44.5369 33.4962C44.5436 33.4951 44.5533 33.494 44.5656 33.4936C44.5915 33.4927 44.6231 33.4953 44.657 33.5036C44.7301 33.5216 44.7635 33.553 44.7556 33.5459C44.7427 33.5343 44.6963 33.4868 44.6292 33.3719C44.5631 33.2589 44.4888 33.1009 44.4115 32.888L42.4892 33.4417ZM45.2092 35.3776C45.83 35.1988 46.2143 34.7541 46.3969 34.2257L44.4572 33.5187C44.4409 33.5659 44.4322 33.564 44.4519 33.544C44.4615 33.5342 44.4746 33.5237 44.4903 33.5145C44.5059 33.5054 44.5191 33.5005 44.5269 33.4983L45.2092 35.3776ZM46.3811 34.2678C46.589 33.751 46.5952 33.2004 46.3983 32.6583L44.476 33.2119C44.5112 33.3087 44.5106 33.3829 44.4729 33.4765L46.3811 34.2678ZM46.3983 32.6583C46.2623 32.2837 46.0968 31.9305 45.8988 31.6022L44.1476 32.5137C44.2696 32.716 44.3801 32.9476 44.476 33.2119L46.3983 32.6583ZM45.5101 32.9429L46.0272 32.7006L45.0535 30.9306L44.5363 31.173L45.5101 32.9429ZM44.6995 32.3252C44.8213 32.5017 44.9345 32.7202 45.0323 32.9895L46.9546 32.4358C46.8067 32.0285 46.6178 31.649 46.3811 31.306L44.6995 32.3252ZM45.0323 32.9895C45.2032 33.4603 45.163 33.7716 45.032 34.0136L46.8528 34.9907C47.2811 34.1998 47.2749 33.3181 46.9546 32.4358L45.0323 32.9895ZM45.0215 34.0335C44.898 34.2759 44.6683 34.4851 44.2014 34.6196L44.8837 36.4989C45.7625 36.2458 46.466 35.7503 46.8633 34.9709L45.0215 34.0335ZM44.2014 34.6196C43.8295 34.7267 43.5122 34.6788 43.1575 34.4451L42.0674 36.0415C42.9405 36.6166 43.91 36.7793 44.8837 36.4989L44.2014 34.6196ZM43.172 34.4548C42.8163 34.2123 42.413 33.6995 42.0591 32.7248L40.1368 33.2785C40.5607 34.4462 41.167 35.4278 42.0529 36.0317L43.172 34.4548ZM42.0591 32.7248L39.0093 24.3242L37.087 24.8779L40.1368 33.2785L42.0591 32.7248ZM39.0093 24.3242C38.909 24.0479 38.6997 23.6885 38.2782 23.474C37.8567 23.2594 37.4428 23.3016 37.16 23.383L37.8423 25.2623C37.8287 25.2663 37.6406 25.3161 37.4014 25.1943C37.1621 25.0726 37.0918 24.8912 37.087 24.8779L39.0093 24.3242ZM37.16 23.383L35.8048 23.7734L36.4871 25.6527L37.8423 25.2623L37.16 23.383ZM37.1071 24.4362L36.9229 23.9288L35.0006 24.4824L35.1848 24.9898L37.1071 24.4362ZM36.3029 25.1453L37.7158 24.7383L37.0335 22.859L35.6206 23.2659L36.3029 25.1453ZM37.7158 24.7383C38.5622 24.4945 38.896 23.6772 39.0538 23.0561C39.2331 22.3503 39.3054 21.4124 39.2993 20.2858L37.2595 20.1892C37.2653 21.2596 37.1928 22.0136 37.0706 22.4949C36.9268 23.0608 36.8022 22.9256 37.0335 22.859L37.7158 24.7383Z" fill="#3D0EFB"/>
<path d="M64.2892 25.3043L64.3665 24.2546L64.4137 23.2054C64.5191 20.8671 63.812 19.7091 62.2924 19.7314C61.6326 19.741 61.1024 19.9785 60.7018 20.4437C60.3221 20.8886 60.1188 21.4109 60.0918 22.0104C60.0647 22.61 60.1213 23.1284 60.2615 23.5658C59.9081 23.8705 59.4314 24.0273 58.8316 24.0361C58.2318 24.0449 57.9539 23.5596 57.9981 22.5803C58.0422 21.6011 58.4594 20.7661 59.2498 20.0755C60.0602 19.3846 61.1752 19.0287 62.5948 19.0079C65.3739 18.9672 66.6897 20.5857 66.542 23.8633L66.2652 30.0088C66.2165 31.088 66.4921 31.6232 67.092 31.6144C67.3719 31.6103 67.6177 31.4769 67.8293 31.2141C68.0609 30.9511 68.1844 30.6497 68.1997 30.31C68.215 29.9702 68.1994 29.6509 68.153 29.352L68.7269 29.2537C68.7933 29.5523 68.8185 29.8815 68.8023 30.2412C68.7698 30.9607 68.5242 31.5335 68.0655 31.9596C67.6267 32.3855 67.0574 32.6035 66.3576 32.6138C65.6578 32.624 65.1006 32.3526 64.6859 31.7994C64.2722 31.2263 64.0909 30.3701 64.1423 29.231L64.1666 28.6914C63.7655 30.0553 63.1806 31.0625 62.412 31.7129C61.6434 32.3632 60.7693 32.6956 59.7895 32.7099C58.8298 32.724 58.0636 32.4356 57.4908 31.8448C56.9388 31.2338 56.6854 30.4286 56.7304 29.4293C56.7763 28.4101 57.2867 27.5039 58.2615 26.7107C59.2373 25.8975 60.6049 25.4781 62.3644 25.4523C62.7443 25.4467 63.3818 25.4873 64.277 25.5741L64.2892 25.3043ZM60.5307 31.5607C61.3704 31.5484 62.1414 31.0677 62.8435 30.1188C63.5665 29.1495 64.0267 27.8047 64.2241 26.0842C64.0251 26.0671 63.7456 26.0612 63.3857 26.0665C61.7862 26.0899 60.6212 26.4465 59.8908 27.1362C59.1813 27.8057 58.8067 28.5801 58.7671 29.4594C58.741 30.039 58.8884 30.5362 59.2094 30.9509C59.5304 31.3656 59.9708 31.5689 60.5307 31.5607Z" fill="#3D0EFB"/>
<path d="M64.2892 25.3043L63.2912 25.2904L63.2901 25.3047L63.2895 25.3189L64.2892 25.3043ZM64.3665 24.2546L65.3645 24.2685L65.3655 24.2543L65.3662 24.24L64.3665 24.2546ZM60.7018 20.4437L59.9598 19.8185L59.9566 19.8222L60.7018 20.4437ZM60.2615 23.5658L60.8891 24.3054L61.4204 23.8472L61.2164 23.2105L60.2615 23.5658ZM59.2498 20.0755L58.6268 19.3318L58.6168 19.3405L59.2498 20.0755ZM67.8293 31.2141L67.0952 30.5798L67.0794 30.5978L67.0644 30.6165L67.8293 31.2141ZM68.153 29.352L68.0415 28.3672L67.0056 28.5446L67.1639 29.5623L68.153 29.352ZM68.7269 29.2537L69.7044 28.9821L69.5115 28.1155L68.6154 28.269L68.7269 29.2537ZM68.0655 31.9596L67.4078 31.2469L67.399 31.2551L67.3904 31.2634L68.0655 31.9596ZM64.6859 31.7994L63.8623 32.415L63.8671 32.4217L63.872 32.4283L64.6859 31.7994ZM64.1666 28.6914L65.1663 28.6767L63.2076 28.4632L64.1666 28.6914ZM62.412 31.7129L61.7921 30.9666L61.7921 30.9666L62.412 31.7129ZM57.4908 31.8448L56.7299 32.5382L56.7408 32.5502L56.752 32.5618L57.4908 31.8448ZM58.2615 26.7107L58.8653 27.4704L58.8752 27.4622L58.2615 26.7107ZM64.277 25.5741L64.1219 26.5689L65.2265 26.6759L65.2768 25.5595L64.277 25.5741ZM62.8435 30.1188L62.0537 29.5531L62.0512 29.5565L62.8435 30.1188ZM64.2241 26.0842L65.2182 26.1391L65.3293 25.1708L64.3684 25.0884L64.2241 26.0842ZM59.8908 27.1362L60.5548 27.8431L60.5551 27.8428L59.8908 27.1362ZM59.2094 30.9509L58.4041 31.591L58.4041 31.591L59.2094 30.9509ZM65.2872 25.3182L65.3645 24.2685L63.3685 24.2407L63.2912 25.2904L65.2872 25.3182ZM65.3662 24.24L65.4134 23.1908L63.414 23.22L63.3668 24.2693L65.3662 24.24ZM65.4134 23.1908C65.4695 21.9454 65.3229 20.8414 64.8253 20.0266C64.2827 19.1379 63.3997 18.7165 62.3374 18.7321L62.2474 20.7306C62.7047 20.7239 62.9351 20.8705 63.0995 21.1398C63.3091 21.4829 63.4633 22.1272 63.414 23.22L65.4134 23.1908ZM62.3374 18.7321C61.4153 18.7456 60.5835 19.0942 59.9598 19.8185L61.4439 21.0688C61.6213 20.8627 61.8499 20.7364 62.2474 20.7306L62.3374 18.7321ZM59.9566 19.8222C59.4138 20.4584 59.1288 21.2086 59.0921 22.0251L61.0915 21.9958C61.1087 21.6131 61.2305 21.3189 61.447 21.0651L59.9566 19.8222ZM59.0921 22.0251C59.0612 22.7099 59.1233 23.349 59.3066 23.921L61.2164 23.2105C61.1194 22.9079 61.0683 22.5101 61.0915 21.9958L59.0921 22.0251ZM59.6338 22.8262C59.5246 22.9203 59.3129 23.0304 58.8766 23.0368L58.7866 25.0353C59.5499 25.0242 60.2915 24.8207 60.8891 24.3054L59.6338 22.8262ZM58.8766 23.0368C58.865 23.037 58.9036 23.035 58.9597 23.0654C59.0177 23.0969 59.0447 23.1361 59.0495 23.1445C59.0505 23.1463 59.0302 23.1104 59.0139 23.008C58.9977 22.9069 58.9889 22.7626 58.9978 22.5657L56.9984 22.595C56.9732 23.1541 57.0265 23.7401 57.2973 24.213C57.6134 24.7651 58.1575 25.0445 58.7866 25.0353L58.8766 23.0368ZM58.9978 22.5657C59.0285 21.8836 59.3028 21.3173 59.8829 20.8104L58.6168 19.3405C57.6161 20.2149 57.0559 21.3185 56.9984 22.595L58.9978 22.5657ZM59.8728 20.8191C60.4337 20.3409 61.2816 20.0258 62.5497 20.0072L62.6398 18.0087C61.0688 18.0317 59.6867 18.4282 58.6268 19.3319L59.8728 20.8191ZM62.5497 20.0072C63.738 19.9898 64.446 20.3217 64.8742 20.8485C65.3279 21.4065 65.6109 22.3565 65.5423 23.8779L67.5417 23.8486C67.6209 22.0925 67.3198 20.5944 66.4577 19.534C65.5702 18.4423 64.2307 17.9854 62.6398 18.0087L62.5497 20.0072ZM65.5423 23.8779L65.2655 30.0234L67.2649 29.9941L67.5417 23.8486L65.5423 23.8779ZM65.2655 30.0234C65.2385 30.6228 65.2886 31.2302 65.5396 31.7176C65.6728 31.9763 65.8701 32.2151 66.1499 32.3834C66.4312 32.5525 66.7423 32.6181 67.0469 32.6137L67.137 30.6151C67.137 30.6151 67.1405 30.6151 67.1471 30.6158C67.1537 30.6165 67.1632 30.6179 67.1748 30.6208C67.1992 30.6267 67.2275 30.6376 67.2558 30.6546C67.3168 30.6912 67.3358 30.7304 67.3312 30.7215C67.3236 30.7068 67.2988 30.6487 67.2807 30.5198C67.2628 30.393 67.2547 30.2205 67.2649 29.9941L65.2655 30.0234ZM67.0469 32.6137C67.6927 32.6042 68.221 32.2751 68.5942 31.8118L67.0644 30.6165C67.031 30.6579 67.0236 30.6537 67.0497 30.6396C67.0624 30.6327 67.0786 30.6259 67.0967 30.6212C67.1147 30.6165 67.1289 30.6152 67.137 30.6151L67.0469 32.6137ZM68.5634 31.8484C68.9556 31.4031 69.1735 30.8719 69.1994 30.2953L67.2 30.3246C67.1954 30.4276 67.1663 30.4991 67.0952 30.5798L68.5634 31.8484ZM69.1994 30.2953C69.2174 29.897 69.1996 29.5116 69.1421 29.1417L67.1639 29.5623C67.1993 29.7902 67.2127 30.0435 67.2 30.3246L69.1994 30.2953ZM68.2644 30.3368L68.8383 30.2385L68.6154 28.269L68.0415 28.3672L68.2644 30.3368ZM67.7493 29.5253C67.7945 29.7282 67.8154 29.9696 67.8025 30.2559L69.802 30.2266C69.8215 29.7934 69.7922 29.3764 69.7044 28.9821L67.7493 29.5253ZM67.8025 30.2559C67.78 30.7566 67.6227 31.0472 67.4078 31.2469L68.7232 32.6724C69.4258 32.0198 69.7597 31.1648 69.802 30.2266L67.8025 30.2559ZM67.3904 31.2634C67.1822 31.4654 66.8882 31.6074 66.4026 31.6145L66.3126 33.613C67.2266 33.5996 68.0711 33.3055 68.7405 32.6559L67.3904 31.2634ZM66.4026 31.6145C66.0158 31.6202 65.7394 31.4902 65.4998 31.1705L63.872 32.4283C64.4617 33.2149 65.2998 33.6279 66.3126 33.613L66.4026 31.6145ZM65.5096 31.1838C65.2725 30.8554 65.0953 30.2529 65.142 29.2163L63.1426 29.2456C63.0866 30.4874 63.2718 31.5971 63.8623 32.415L65.5096 31.1838ZM65.142 29.2163L65.1663 28.6767L63.1669 28.706L63.1426 29.2456L65.142 29.2163ZM63.2076 28.4632C62.8409 29.7101 62.3427 30.5007 61.7921 30.9666L63.0319 32.4591C64.0185 31.6243 64.69 30.4005 65.1255 28.9195L63.2076 28.4632ZM61.7921 30.9666C61.2126 31.457 60.5746 31.6998 59.8346 31.7106L59.7445 33.7092C60.964 33.6913 62.0742 33.2694 63.0319 32.4591L61.7921 30.9666ZM59.8346 31.7106C59.102 31.7214 58.5992 31.5092 58.2295 31.1279L56.752 32.5618C57.528 33.362 58.5576 33.7266 59.7445 33.7092L59.8346 31.7106ZM58.2516 31.1515C57.8934 30.7549 57.6944 30.2085 57.7301 29.4147L55.7307 29.444C55.6764 30.6487 55.9843 31.7126 56.7299 32.5382L58.2516 31.1515ZM57.7301 29.4147C57.76 28.752 58.0761 28.1125 58.8653 27.4703L57.6578 25.951C56.4973 26.8953 55.7927 28.0681 55.7307 29.444L57.7301 29.4147ZM58.8752 27.4622C59.5971 26.8605 60.6977 26.4753 62.3194 26.4516L62.4094 24.453C60.5121 24.4808 58.8774 24.9345 57.6479 25.9592L58.8752 27.4622ZM62.3194 26.4516C62.6383 26.4469 63.2272 26.4822 64.1219 26.5689L64.4322 24.5793C63.5365 24.4925 62.8502 24.4466 62.4094 24.453L62.3194 26.4516ZM65.2768 25.5595L65.2889 25.2897L63.2895 25.3189L63.2773 25.5887L65.2768 25.5595ZM60.4856 32.5599C61.7625 32.5412 62.814 31.7916 63.6358 30.681L62.0512 29.5565C61.4687 30.3438 60.9783 30.5555 60.5757 30.5614L60.4856 32.5599ZM63.6332 30.6844C64.5097 29.5095 65.009 27.9626 65.2182 26.1391L63.23 26.0292C63.0444 27.6467 62.6233 28.7896 62.0537 29.5531L63.6332 30.6844ZM64.3684 25.0884C64.1204 25.0671 63.8023 25.0618 63.4307 25.0672L63.3407 27.0657C63.6889 27.0606 63.9297 27.0671 64.0798 27.0799L64.3684 25.0884ZM63.4307 25.0672C61.7288 25.0921 60.2443 25.4685 59.2265 26.4297L60.5551 27.8428C60.9981 27.4244 61.8435 27.0877 63.3407 27.0657L63.4307 25.0672ZM59.2268 26.4294C58.3322 27.2735 57.8202 28.3023 57.7674 29.4741L59.7668 29.4448C59.7933 28.8579 60.0304 28.3378 60.5548 27.8431L59.2268 26.4294ZM57.7674 29.4741C57.7318 30.2645 57.9367 30.9871 58.4041 31.591L60.0148 30.3108C59.8402 30.0852 59.7502 29.8135 59.7668 29.4448L57.7674 29.4741ZM58.4041 31.591C58.9117 32.2469 59.6368 32.5723 60.4856 32.5599L60.5757 30.5614C60.3048 30.5654 60.1491 30.4843 60.0148 30.3108L58.4041 31.591Z" fill="#3D0EFB"/>
<path d="M96.0371 24.2509L95.8219 24.1526C96.218 22.9955 96.0727 22.3096 95.3859 22.0948C95.0425 21.9874 94.6407 22.0581 94.1806 22.3067C93.7204 22.5554 93.3198 22.9466 92.9786 23.4804C93.6333 24.5322 93.6264 25.7077 92.9578 27.0068C92.2893 28.306 91.3617 29.1833 90.175 29.6386C89.0166 30.0821 87.7888 30.101 86.4916 29.6954L83.9448 28.899C83.4679 28.7498 83.0318 28.7581 82.6365 28.9237C82.2603 29.0953 81.9852 29.3502 81.8112 29.6883C81.6372 30.0265 81.6101 30.3589 81.7299 30.6856C81.8687 31.0183 82.1766 31.2592 82.6535 31.4083L87.4323 32.9027C88.5769 33.2606 89.3071 33.7782 89.623 34.4555C89.9671 35.1209 89.9468 35.8274 89.5622 36.5749C88.9486 37.7672 87.7707 38.7005 86.0285 39.3747C84.2864 40.0489 82.5187 40.1056 80.7254 39.5448C79.3519 39.1153 78.3916 38.4638 77.8445 37.5902C77.2974 36.7167 77.262 35.8172 77.7382 34.8918C78.2145 33.9663 79.197 33.2406 80.6858 32.7144C80.2539 32.4347 79.9861 32.0514 79.8824 31.5644C79.8069 31.0656 79.9202 30.5226 80.2224 29.9353C80.5247 29.348 81.0237 28.8946 81.7197 28.575C82.4248 28.2377 83.2352 28.2122 84.1509 28.4986L84.5801 28.6328C83.4218 27.5268 83.2869 26.1107 84.1752 24.3844C84.8071 23.1564 85.7023 22.3207 86.8607 21.8771C88.0282 21.4158 89.2606 21.388 90.5579 21.7937C91.4163 22.0621 92.0874 22.4579 92.5712 22.9811C93.0711 22.311 93.6404 21.8072 94.2791 21.4698C94.9369 21.1383 95.5996 21.077 96.2673 21.2858C96.9541 21.5005 97.4299 21.8456 97.6946 22.3209C97.9784 22.8022 98.0196 23.2386 97.8181 23.6302C97.4701 24.3064 96.8764 24.5133 96.0371 24.2509ZM86.5256 34.6646L81.5179 33.0986C80.5686 33.5662 79.8788 34.2182 79.4483 35.0546C79.0179 35.8911 78.9324 36.6598 79.1918 37.3607C79.442 38.0794 80.1585 38.6237 81.3413 38.9936C82.5431 39.3694 83.832 39.3179 85.2079 38.8391C86.5837 38.3603 87.4869 37.7027 87.9173 36.8662C88.1463 36.4213 88.1528 35.9998 87.9369 35.6017C87.721 35.2036 87.2505 34.8913 86.5256 34.6646ZM88.1289 22.7696C87.3787 23.2375 86.7381 23.9875 86.2069 25.0197C85.6757 26.0519 85.4738 26.9392 85.6012 27.6815C85.7286 28.4238 86.1261 28.8993 86.7938 29.1081C87.4615 29.3169 88.1704 29.1874 88.9206 28.7195C89.6898 28.2576 90.34 27.5105 90.8712 26.4783C91.4024 25.4461 91.5947 24.5558 91.4483 23.8076C91.3209 23.0653 90.9233 22.5897 90.2556 22.381C89.5879 22.1722 88.879 22.3017 88.1289 22.7696Z" fill="#3D0EFB"/>
<path d="M96.0371 24.2509L95.4644 25.0968L95.5198 25.1221L95.5791 25.1407L96.0371 24.2509ZM95.8219 24.1526L94.8121 23.9852L94.5712 24.6889L95.2492 24.9985L95.8219 24.1526ZM94.1806 22.3067L93.7157 21.5212L93.7157 21.5212L94.1806 22.3067ZM92.9786 23.4804L92.0734 23.0978L91.7678 23.5759L92.0371 24.0087L92.9786 23.4804ZM90.175 29.6386L90.4885 30.4936L90.4894 30.4933L90.175 29.6386ZM82.6365 28.9237L82.2859 28.0836L82.2674 28.0914L82.2491 28.0997L82.6365 28.9237ZM81.7299 30.6856L80.7193 31.0725L80.7251 31.0883L80.7316 31.1039L81.7299 30.6856ZM89.623 34.4555L88.6374 34.9025L88.644 34.9167L88.6512 34.9306L89.623 34.4555ZM86.0285 39.3747L86.3463 40.2281L86.3463 40.2281L86.0285 39.3747ZM77.8445 37.5902L78.7849 37.0601L78.7849 37.0601L77.8445 37.5902ZM80.6858 32.7144L80.968 33.581L82.8786 32.9058L81.376 31.9327L80.6858 32.7144ZM79.8824 31.5644L78.8333 31.8007L78.8368 31.8238L78.8416 31.8466L79.8824 31.5644ZM81.7197 28.575L82.11 29.3978L82.1192 29.3935L82.1284 29.3892L81.7197 28.575ZM84.5801 28.6328L84.1222 29.5226L85.3956 27.9499L84.5801 28.6328ZM86.8607 21.8771L87.1742 22.7322L87.1869 22.7272L86.8607 21.8771ZM92.5712 22.9811L91.7202 23.628L92.5851 24.5633L93.4318 23.4283L92.5712 22.9811ZM94.2791 21.4698L93.8467 20.6673L93.8357 20.6729L93.8248 20.6786L94.2791 21.4698ZM97.6946 22.3209L96.7341 22.817L96.7387 22.8253L96.7435 22.8334L97.6946 22.3209ZM81.5179 33.0986L81.9759 32.2088L81.5397 32.0724L81.096 32.2909L81.5179 33.0986ZM79.1918 37.3607L80.2066 36.9856L80.2041 36.9786L80.2015 36.9716L79.1918 37.3607ZM85.2079 38.8391L85.4842 39.7077L85.4842 39.7077L85.2079 38.8391ZM87.9369 35.6017L88.9015 35.1132L88.9015 35.1132L87.9369 35.6017ZM85.6012 27.6815L86.6478 27.4299L86.6478 27.4299L85.6012 27.6815ZM88.9206 28.7195L88.4054 27.9626L88.3962 27.9682L88.3871 27.9738L88.9206 28.7195ZM91.4483 23.8076L90.4016 24.0591L90.4032 24.0681L90.4049 24.0771L91.4483 23.8076ZM96.6097 23.4049L96.3946 23.3066L95.2492 24.9985L95.4644 25.0968L96.6097 23.4049ZM96.8316 24.3199C97.052 23.6761 97.1679 23.0413 97.0509 22.489C96.922 21.8808 96.5149 21.4148 95.8438 21.205L94.928 22.9846C94.9579 22.994 94.9556 22.9988 94.9482 22.9908C94.9424 22.9845 94.9571 22.9953 94.969 23.0516C94.9974 23.1853 94.9879 23.4719 94.8121 23.9852L96.8316 24.3199ZM95.8438 21.205C95.1154 20.9772 94.3593 21.1735 93.7157 21.5212L94.6455 23.0922C94.7862 23.0162 94.8703 22.9935 94.9061 22.9872C94.9148 22.9857 94.9207 22.9851 94.9241 22.9849C94.9275 22.9847 94.9291 22.9847 94.9292 22.9847C94.9292 22.9847 94.9287 22.9847 94.928 22.9846C94.9272 22.9845 94.9272 22.9844 94.928 22.9846L95.8438 21.205ZM93.7157 21.5212C93.0275 21.8931 92.4898 22.4461 92.0734 23.0978L93.8839 23.863C94.1498 23.4471 94.4133 23.2177 94.6455 23.0922L93.7157 21.5212ZM92.0371 24.0087C92.5279 24.7972 92.5421 25.6629 92.004 26.7086L93.9117 27.3051C94.7107 25.7524 94.7387 24.2672 93.9201 22.9521L92.0371 24.0087ZM92.004 26.7086C91.4295 27.8249 90.7012 28.4614 89.8606 28.7839L90.4894 30.4933C92.0222 29.9051 93.149 28.7871 93.9117 27.3051L92.004 26.7086ZM89.8615 28.7836C89.0046 29.1117 88.0536 29.1508 86.9495 28.8056L86.0337 30.5852C87.524 31.0513 89.0287 31.0526 90.4885 30.4936L89.8615 28.7836ZM86.9495 28.8056L84.4028 28.0092L83.4869 29.7888L86.0337 30.5852L86.9495 28.8056ZM84.4028 28.0092C83.7428 27.8028 83.0111 27.7797 82.2859 28.0836L82.9872 29.7639C83.0526 29.7365 83.193 29.6969 83.4869 29.7888L84.4028 28.0092ZM82.2491 28.0997C81.6259 28.3839 81.1477 28.8259 80.8574 29.3901L82.765 29.9866C82.8228 29.8745 82.8947 29.8067 83.0239 29.7478L82.2491 28.0997ZM80.8574 29.3901C80.5671 29.9542 80.5209 30.5313 80.7193 31.0725L82.7404 30.2987C82.6993 30.1865 82.7073 30.0988 82.765 29.9866L80.8574 29.3901ZM80.7316 31.1039C80.9864 31.7142 81.5357 32.0918 82.1956 32.2982L83.1114 30.5185C82.8175 30.4266 82.7511 30.3223 82.7281 30.2673L80.7316 31.1039ZM82.1956 32.2982L86.9744 33.7925L87.8902 32.0129L83.1114 30.5185L82.1956 32.2982ZM86.9744 33.7925C87.9877 34.1094 88.4559 34.5133 88.6374 34.9025L90.6086 34.0085C90.1583 33.0431 89.1661 32.4118 87.8902 32.0129L86.9744 33.7925ZM88.6512 34.9306C88.8714 35.3563 88.8639 35.78 88.6084 36.2766L90.516 36.8731C91.0298 35.8748 91.0629 34.8856 90.5948 33.9804L88.6512 34.9306ZM88.6084 36.2766C88.1554 37.1568 87.2588 37.9223 85.7108 38.5213L86.3463 40.2281C88.2826 39.4788 89.7418 38.3777 90.516 36.8731L88.6084 36.2766ZM85.7108 38.5213C84.2486 39.0871 82.7579 39.1474 81.1833 38.655L80.2675 40.4346C82.2794 41.0638 84.3241 41.0106 86.3463 40.2281L85.7108 38.5213ZM81.1833 38.655C79.9594 38.2722 79.2004 37.7235 78.7849 37.0601L76.9042 38.1204C77.5828 39.204 78.7444 39.9583 80.2675 40.4346L81.1833 38.655ZM78.7849 37.0601C78.375 36.4055 78.3729 35.8103 78.6921 35.19L76.7844 34.5935C76.1511 35.8241 76.2199 37.0278 76.9042 38.1204L78.7849 37.0601ZM78.6921 35.19C78.9893 34.6125 79.6504 34.0466 80.968 33.581L80.4036 31.8479C78.7436 32.4345 77.4397 33.3202 76.7844 34.5935L78.6921 35.19ZM81.376 31.9327C81.1294 31.7731 80.9838 31.567 80.9231 31.2823L78.8416 31.8466C78.9885 32.5358 79.3785 33.0964 79.9957 33.4961L81.376 31.9327ZM80.9315 31.3282C80.8876 31.0384 80.9447 30.6835 81.1763 30.2336L79.2686 29.637C78.8957 30.3617 78.7261 31.0929 78.8333 31.8007L80.9315 31.3282ZM81.1763 30.2336C81.3546 29.887 81.6417 29.6128 82.11 29.3978L81.3294 27.7523C80.4057 28.1764 79.6947 28.809 79.2686 29.637L81.1763 30.2336ZM82.1284 29.3892C82.4709 29.2253 82.9553 29.1577 83.693 29.3884L84.6088 27.6087C83.5151 27.2667 82.3788 27.2501 81.311 27.7609L82.1284 29.3892ZM83.693 29.3884L84.1222 29.5226L85.038 27.743L84.6088 27.6087L83.693 29.3884ZM85.3956 27.9499C84.9377 27.5127 84.7122 27.0476 84.6646 26.5483C84.6162 26.0408 84.7456 25.4279 85.1291 24.6827L83.2214 24.0861C82.7165 25.0672 82.4692 26.0255 82.5557 26.9341C82.6431 27.8509 83.0642 28.6469 83.7647 29.3157L85.3956 27.9499ZM85.1291 24.6827C85.6617 23.6475 86.3533 23.0465 87.1742 22.7322L86.5472 21.0221C85.0513 21.5949 83.9525 22.6653 83.2214 24.0861L85.1291 24.6827ZM87.1869 22.7272C88.052 22.3854 89.0025 22.3403 90.0999 22.6835L91.0158 20.9038C89.5188 20.4357 88.0045 20.4462 86.5345 21.0271L87.1869 22.7272ZM90.0999 22.6835C90.8293 22.9116 91.3551 23.2331 91.7202 23.628L93.4222 22.3342C92.8197 21.6827 92.0034 21.2127 91.0158 20.9038L90.0999 22.6835ZM93.4318 23.4283C93.8496 22.8682 94.2882 22.4961 94.7334 22.2609L93.8248 20.6786C92.9925 21.1183 92.2925 21.7537 91.7106 22.5339L93.4318 23.4283ZM94.7114 22.2723C95.0763 22.0884 95.4134 22.0517 95.8094 22.1756L96.7252 20.3959C95.7859 20.1022 94.7975 20.1882 93.8467 20.6673L94.7114 22.2723ZM95.8094 22.1756C96.3221 22.3359 96.5927 22.5631 96.7341 22.817L98.6551 21.8249C98.267 21.1281 97.5861 20.6651 96.7252 20.3959L95.8094 22.1756ZM96.7435 22.8334C96.9443 23.1739 96.8767 23.3078 96.8643 23.3319L98.772 23.9284C99.1626 23.1695 99.0126 22.4305 98.6457 21.8084L96.7435 22.8334ZM96.8643 23.3319C96.8204 23.4172 96.7889 23.4481 96.7861 23.4507C96.7852 23.4515 96.7901 23.4469 96.8009 23.4403C96.8119 23.4336 96.824 23.428 96.835 23.4241C96.8821 23.4077 96.7991 23.4561 96.495 23.361L95.5791 25.1407C96.1144 25.3081 96.7479 25.3843 97.3888 25.161C98.0674 24.9245 98.5085 24.4405 98.772 23.9284L96.8643 23.3319ZM86.9835 33.7747L81.9759 32.2088L81.06 33.9884L86.0677 35.5544L86.9835 33.7747ZM81.096 32.2909C79.924 32.8682 79.0397 33.6968 78.4945 34.7564L80.4022 35.3529C80.7178 34.7396 81.2133 34.2642 81.9399 33.9063L81.096 32.2909ZM78.4945 34.7564C77.9662 35.783 77.8309 36.801 78.182 37.7498L80.2015 36.9716C80.0339 36.5186 80.0696 35.9992 80.4022 35.3529L78.4945 34.7564ZM78.177 37.7358C78.546 38.7956 79.5625 39.4704 80.8834 39.8834L81.7992 38.1038C80.7545 37.7771 80.338 37.3632 80.2066 36.9856L78.177 37.7358ZM80.8834 39.8834C82.3305 40.336 83.8818 40.2654 85.4842 39.7077L84.9315 37.9705C83.7822 38.3705 82.7557 38.4029 81.7992 38.1038L80.8834 39.8834ZM85.4842 39.7077C87.0246 39.1717 88.2579 38.3564 88.8712 37.1645L86.9635 36.568C86.7159 37.049 86.1429 37.549 84.9315 37.9705L85.4842 39.7077ZM88.8712 37.1645C89.2342 36.4591 89.2466 35.7495 88.9015 35.1132L86.9722 36.0902C87.059 36.2502 87.0584 36.3836 86.9635 36.568L88.8712 37.1645ZM88.9015 35.1132C88.5411 34.4486 87.8193 34.0361 86.9835 33.7747L86.0677 35.5544C86.6818 35.7464 86.9008 35.9587 86.9722 36.0902L88.9015 35.1132ZM87.5954 22.0239C86.6017 22.6437 85.8394 23.5821 85.2531 24.7214L87.1607 25.318C87.6368 24.393 88.1557 23.8312 88.6624 23.5152L87.5954 22.0239ZM85.2531 24.7214C84.6667 25.8608 84.3858 26.9497 84.5546 27.933L86.6478 27.4299C86.5618 26.9286 86.6847 26.243 87.1607 25.318L85.2531 24.7214ZM84.5546 27.933C84.7232 28.9156 85.2933 29.6719 86.3359 29.9979L87.2517 28.2183C86.959 28.1267 86.734 27.932 86.6478 27.4299L84.5546 27.933ZM86.3359 29.9979C87.3786 30.324 88.4611 30.0844 89.4541 29.4651L88.3871 27.9738C87.8798 28.2903 87.5445 28.3098 87.2517 28.2183L86.3359 29.9979ZM89.4358 29.4763C90.4577 28.8626 91.2354 27.9223 91.825 26.7766L89.9173 26.18C89.4446 27.0987 88.9219 27.6525 88.4054 27.9626L89.4358 29.4763ZM91.825 26.7766C92.4146 25.6308 92.6862 24.5322 92.4916 23.5381L90.4049 24.0771C90.5033 24.5795 90.3901 25.2614 89.9173 26.18L91.825 26.7766ZM92.4949 23.5561C92.3263 22.5735 91.7562 21.8172 90.7135 21.4911L89.7977 23.2708C90.0905 23.3623 90.3155 23.5571 90.4016 24.0591L92.4949 23.5561ZM90.7135 21.4911C89.6709 21.1651 88.5884 21.4046 87.5954 22.0239L88.6624 23.5152C89.1697 23.1988 89.505 23.1793 89.7977 23.2708L90.7135 21.4911Z" fill="#3D0EFB"/>
<path d="M101.631 45.4156L110.862 31.0773C110.992 30.8753 110.928 30.7218 110.669 30.6167L109.363 30.0874L109.655 29.633L115.323 31.9304L115.031 32.3848L113.725 31.8555C113.465 31.7504 113.271 31.7988 113.141 32.0008L103.909 46.3391C103.757 46.5747 103.811 46.7451 104.07 46.8502L105.376 47.3795L105.084 47.8339L99.4156 45.5364L99.7082 45.0821L101.014 45.6114C101.273 45.7165 101.479 45.6512 101.631 45.4156Z" fill="#FF8B03"/>
<path d="M109.363 30.0874L108.437 29.712L107.895 30.5534L108.821 30.9288L109.363 30.0874ZM109.655 29.633L110.197 28.7915L109.271 28.4162L108.729 29.2576L109.655 29.633ZM115.323 31.9304L116.249 32.3058L116.791 31.4644L115.865 31.089L115.323 31.9304ZM115.031 32.3848L114.489 33.2263L115.415 33.6017L115.957 32.7602L115.031 32.3848ZM105.376 47.3795L106.302 47.7549L106.844 46.9134L105.918 46.538L105.376 47.3795ZM105.084 47.8339L104.542 48.6753L105.468 49.0507L106.01 48.2093L105.084 47.8339ZM99.4156 45.5364L98.4895 45.161L97.9477 46.0025L98.8739 46.3779L99.4156 45.5364ZM99.7082 45.0821L100.25 44.2406L99.3239 43.8652L98.7821 44.7067L99.7082 45.0821ZM102.557 45.791L111.789 31.4527L109.936 30.7019L100.704 45.0402L102.557 45.791ZM111.789 31.4527C111.961 31.1852 112.089 30.8046 111.926 30.4161C111.776 30.0599 111.451 29.8727 111.21 29.7752L110.127 31.4582C110.126 31.458 110.119 31.455 110.106 31.448C110.094 31.441 110.074 31.429 110.051 31.4106C110.004 31.3732 109.94 31.3068 109.897 31.2053C109.798 30.9703 109.894 30.7674 109.936 30.7019L111.789 31.4527ZM111.21 29.7752L109.904 29.2459L108.821 30.9288L110.127 31.4582L111.21 29.7752ZM110.289 30.4628L110.581 30.0084L108.729 29.2576L108.437 29.712L110.289 30.4628ZM109.113 30.4745L114.781 32.7719L115.865 31.089L110.197 28.7915L109.113 30.4745ZM114.397 31.555L114.104 32.0094L115.957 32.7602L116.249 32.3058L114.397 31.555ZM115.572 31.5434L114.267 31.0141L113.183 32.697L114.489 33.2263L115.572 31.5434ZM114.267 31.0141C114.026 30.9166 113.645 30.8175 113.193 30.9298C112.7 31.0523 112.387 31.3579 112.215 31.6254L114.067 32.3762C114.025 32.4417 113.874 32.6221 113.576 32.6962C113.447 32.7282 113.342 32.7259 113.276 32.7177C113.244 32.7136 113.22 32.7081 113.205 32.7041C113.191 32.7001 113.183 32.6971 113.183 32.697L114.267 31.0141ZM112.215 31.6254L102.983 45.9637L104.835 46.7145L114.067 32.3762L112.215 31.6254ZM102.983 45.9637C102.823 46.2112 102.673 46.5793 102.797 46.9731C102.922 47.367 103.256 47.5812 103.528 47.6916L104.612 46.0087C104.625 46.014 104.803 46.0905 104.873 46.314C104.944 46.5375 104.843 46.7026 104.835 46.7145L102.983 45.9637ZM103.528 47.6916L104.834 48.221L105.918 46.538L104.612 46.0087L103.528 47.6916ZM104.45 47.0041L104.157 47.4585L106.01 48.2093L106.302 47.7549L104.45 47.0041ZM105.625 46.9924L99.9574 44.695L98.8739 46.3779L104.542 48.6753L105.625 46.9924ZM100.342 45.9118L100.634 45.4575L98.7821 44.7067L98.4895 45.161L100.342 45.9118ZM99.1664 45.9235L100.472 46.4528L101.556 44.7699L100.25 44.2406L99.1664 45.9235ZM100.472 46.4528C100.745 46.5632 101.159 46.6526 101.634 46.5017C102.11 46.3509 102.397 46.0385 102.557 45.791L100.704 45.0402C100.712 45.0283 100.821 44.8664 101.091 44.7808C101.361 44.6952 101.543 44.7646 101.556 44.7699L100.472 46.4528Z" fill="#FF8B03"/>
<path d="M123.658 53.8034L124.303 51.3039C122.733 52.9397 121.185 53.6566 119.659 53.4548C118.153 53.2556 117.116 52.5074 116.549 51.2101C115.983 49.9129 115.962 48.2471 116.487 46.2127C117.013 44.1783 117.985 42.6338 119.406 41.5794C120.826 40.5249 122.378 40.109 124.063 40.3318C125.153 40.476 126.076 40.8686 126.833 41.5097L128.327 35.7262C128.397 35.4549 128.293 35.3009 128.016 35.2643L126.618 35.0795L126.753 34.5563L128.21 34.749C129.399 34.9063 130.247 34.9582 130.752 34.9049L126.084 52.9821C126.014 53.2533 126.117 53.4073 126.395 53.444L127.792 53.6288L127.657 54.1519L126.2 53.9593C125.011 53.802 124.164 53.75 123.658 53.8034ZM123.897 41.2116C122.886 41.0779 121.894 41.4676 120.92 42.3808C119.952 43.2746 119.237 44.6127 118.777 46.3953C118.316 48.1778 118.246 49.6011 118.565 50.6653C118.91 51.7127 119.528 52.2954 120.42 52.4133C121.708 52.5837 123.095 51.8555 124.581 50.2286L126.6 42.4107C125.829 41.7476 124.928 41.3479 123.897 41.2116Z" fill="#FF8B03"/>
<path d="M123.658 53.8034L122.667 53.6723L122.347 54.9131L123.656 54.775L123.658 53.8034ZM124.303 51.3039L125.294 51.435L126.187 47.9803L123.587 50.6883L124.303 51.3039ZM116.549 51.2101L117.499 50.7497L117.499 50.7497L116.549 51.2101ZM119.406 41.5794L118.838 40.8327L118.838 40.8327L119.406 41.5794ZM126.833 41.5097L126.109 42.273L127.382 43.3518L127.824 41.6408L126.833 41.5097ZM126.618 35.0795L125.627 34.9484L125.377 35.9172L126.368 36.0482L126.618 35.0795ZM126.753 34.5563L127.004 33.5876L126.013 33.4565L125.762 34.4253L126.753 34.5563ZM130.752 34.9049L131.743 35.0359L132.064 33.7952L130.755 33.9332L130.752 34.9049ZM127.792 53.6288L128.783 53.7598L129.033 52.7911L128.042 52.66L127.792 53.6288ZM127.657 54.1519L127.407 55.1207L128.398 55.2517L128.648 54.283L127.657 54.1519ZM120.92 42.3808L121.586 43.0466L121.593 43.04L120.92 42.3808ZM118.565 50.6653L117.58 51.0302L117.584 51.0408L117.587 51.0513L118.565 50.6653ZM124.581 50.2286L125.317 50.823L125.506 50.6169L125.572 50.3597L124.581 50.2286ZM126.6 42.4107L127.591 42.5417L127.732 41.9973L127.329 41.6513L126.6 42.4107ZM124.649 53.9344L125.294 51.435L123.313 51.1729L122.667 53.6723L124.649 53.9344ZM123.587 50.6883C122.159 52.176 120.96 52.625 119.909 52.486L119.409 54.4236C121.41 54.6882 123.308 53.7034 125.02 51.9196L123.587 50.6883ZM119.909 52.486C118.717 52.3284 117.944 51.7664 117.499 50.7497L115.599 51.6706C116.289 53.2483 117.588 54.1828 119.409 54.4236L119.909 52.486ZM117.499 50.7497C117.038 49.6927 116.985 48.2531 117.478 46.3438L115.496 46.0816C114.939 48.2411 114.928 50.1332 115.599 51.6706L117.499 50.7497ZM117.478 46.3438C117.958 44.4853 118.814 43.187 119.973 42.326L118.838 40.8327C117.157 42.0807 116.067 43.8713 115.496 46.0816L117.478 46.3438ZM119.973 42.326C121.148 41.4535 122.403 41.1141 123.813 41.3006L124.313 39.3631C122.354 39.1039 120.503 39.5962 118.838 40.8327L119.973 42.326ZM123.813 41.3006C124.732 41.4222 125.489 41.748 126.109 42.273L127.557 40.7464C126.664 39.9892 125.574 39.5298 124.313 39.3631L123.813 41.3006ZM127.824 41.6408L129.318 35.8572L127.336 35.5951L125.842 41.3787L127.824 41.6408ZM129.318 35.8572C129.391 35.5723 129.419 35.1709 129.179 34.8149C128.939 34.4589 128.557 34.334 128.266 34.2955L127.765 36.233C127.751 36.2312 127.56 36.2016 127.424 35.9996C127.288 35.7976 127.332 35.6088 127.336 35.5951L129.318 35.8572ZM128.266 34.2955L126.868 34.1107L126.368 36.0482L127.765 36.233L128.266 34.2955ZM127.609 35.2105L127.744 34.6874L125.762 34.4253L125.627 34.9484L127.609 35.2105ZM126.503 35.5251L127.96 35.7177L128.46 33.7802L127.004 33.5876L126.503 35.5251ZM127.96 35.7177C129.148 35.8749 130.105 35.9445 130.75 35.8765L130.755 33.9332C130.388 33.9719 129.651 33.9377 128.46 33.7802L127.96 35.7177ZM129.761 34.7738L125.093 52.851L127.075 53.1131L131.743 35.0359L129.761 34.7738ZM125.093 52.851C125.019 53.136 124.992 53.5373 125.231 53.8933C125.471 54.2493 125.853 54.3742 126.145 54.4128L126.645 52.4752C126.659 52.4771 126.851 52.5066 126.987 52.7086C127.123 52.9107 127.078 53.0994 127.075 53.1131L125.093 52.851ZM126.145 54.4128L127.542 54.5975L128.042 52.66L126.645 52.4752L126.145 54.4128ZM126.801 53.4977L126.666 54.0209L128.648 54.283L128.783 53.7598L126.801 53.4977ZM127.907 53.1831L126.45 52.9905L125.95 54.928L127.407 55.1207L127.907 53.1831ZM126.45 52.9905C125.263 52.8334 124.305 52.7637 123.66 52.8317L123.656 54.775C124.022 54.7363 124.76 54.7706 125.95 54.928L126.45 52.9905ZM124.147 40.2428C122.732 40.0557 121.406 40.6358 120.248 41.7216L121.593 43.04C122.382 42.2995 123.04 42.1001 123.647 42.1804L124.147 40.2428ZM120.255 41.7151C119.067 42.8116 118.274 44.3717 117.786 46.2642L119.768 46.5263C120.2 44.8538 120.837 43.7375 121.586 43.0465L120.255 41.7151ZM117.786 46.2642C117.304 48.128 117.194 49.7439 117.58 51.0302L119.551 50.3004C119.298 49.4583 119.328 48.2276 119.768 46.5263L117.786 46.2642ZM117.587 51.0513C118 52.3077 118.826 53.2044 120.17 53.3821L120.67 51.4446C120.23 51.3863 119.82 51.1177 119.544 50.2792L117.587 51.0513ZM120.17 53.3821C121.995 53.6236 123.742 52.5483 125.317 50.823L123.845 49.6342C122.449 51.1626 121.421 51.5438 120.67 51.4446L120.17 53.3821ZM125.572 50.3597L127.591 42.5417L125.609 42.2796L123.59 50.0976L125.572 50.3597ZM127.329 41.6513C126.431 40.8795 125.366 40.404 124.147 40.2428L123.647 42.1804C124.489 42.2917 125.226 42.6157 125.871 43.17L127.329 41.6513Z" fill="#FF8B03"/>
<path d="M144.059 40.9379C145.425 40.7421 146.57 41.0427 147.494 41.8396C148.418 42.6365 149.008 43.9158 149.264 45.6773C149.315 46.0335 149.353 46.4322 149.377 46.8733L141.269 48.0353L141.3 48.2431C141.572 50.1233 142.125 51.5595 142.956 52.5516C143.804 53.5211 144.762 53.9292 145.831 53.776C146.92 53.6199 147.771 53.2151 148.384 52.5616C148.996 51.9081 149.356 51.0484 149.464 49.9823L150.046 50.0202C149.983 51.2615 149.575 52.2797 148.822 53.0746C148.065 53.8498 147.133 54.3168 146.024 54.4757C144.302 54.7226 142.779 54.3246 141.455 53.2819C140.151 52.2363 139.349 50.6744 139.047 48.5962C138.742 46.4983 139.076 44.7633 140.049 43.3914C141.02 41.9997 142.356 41.1819 144.059 40.9379ZM147.068 44.9615C146.715 42.5271 145.627 41.4404 143.806 41.7015C142.895 41.832 142.185 42.4389 141.675 43.5221C141.185 44.6025 141.031 45.9076 141.213 47.4372L147.182 46.5817C147.163 45.8975 147.125 45.3574 147.068 44.9615Z" fill="#FF8B03"/>
<path d="M147.494 41.8396L146.841 42.596L146.841 42.596L147.494 41.8396ZM149.377 46.8733L149.52 47.8629L150.424 47.7334L150.375 46.8216L149.377 46.8733ZM141.269 48.0353L141.126 47.0456L140.136 47.1875L140.279 48.1771L141.269 48.0353ZM142.956 52.5516L142.189 53.1926L142.196 53.2008L142.203 53.2089L142.956 52.5516ZM148.384 52.5616L149.114 53.2458L149.114 53.2458L148.384 52.5616ZM149.464 49.9823L149.528 48.9847L148.566 48.922L148.469 49.8799L149.464 49.9823ZM150.046 50.0202L151.045 50.072L151.094 49.0867L150.109 49.0226L150.046 50.0202ZM148.822 53.0746L149.538 53.7733L149.543 53.7682L149.548 53.7629L148.822 53.0746ZM141.455 53.2819L140.83 54.0612L140.837 54.0666L141.455 53.2819ZM140.049 43.3914L140.866 43.9705L140.871 43.9639L140.049 43.3914ZM141.675 43.5221L140.77 43.0954L140.764 43.1082L141.675 43.5221ZM141.213 47.4372L140.22 47.5534L140.341 48.5724L141.357 48.4268L141.213 47.4372ZM147.182 46.5817L147.326 47.5713L148.206 47.4452L148.182 46.5565L147.182 46.5817ZM144.202 41.9275C145.324 41.7667 146.167 42.0144 146.841 42.596L148.147 41.0832C146.973 40.0709 145.525 39.7174 143.915 39.9483L144.202 41.9275ZM146.841 42.596C147.514 43.1765 148.037 44.1888 148.274 45.8191L150.253 45.5354C149.979 43.6427 149.322 42.0966 148.147 41.0832L146.841 42.596ZM148.274 45.8191C148.32 46.1397 148.355 46.5076 148.378 46.925L150.375 46.8216C150.351 46.3568 150.31 45.9274 150.253 45.5354L148.274 45.8191ZM149.233 45.8837L141.126 47.0456L141.413 49.0249L149.52 47.8629L149.233 45.8837ZM140.279 48.1771L140.31 48.3849L142.289 48.1012L142.259 47.8934L140.279 48.1771ZM140.31 48.3849C140.598 50.368 141.195 52.0062 142.189 53.1926L143.722 51.9106C143.054 51.1129 142.547 49.8786 142.289 48.1012L140.31 48.3849ZM142.203 53.2089C143.225 54.377 144.502 54.9767 145.975 54.7656L145.688 52.7864C145.022 52.8817 144.383 52.6651 143.708 51.8943L142.203 53.2089ZM145.975 54.7656C147.236 54.5848 148.314 54.0997 149.114 53.2458L147.653 51.8775C147.228 52.3305 146.604 52.655 145.688 52.7864L145.975 54.7656ZM149.114 53.2458C149.904 52.4032 150.334 51.3245 150.459 50.0847L148.469 49.8799C148.379 50.7722 148.088 51.4131 147.653 51.8775L149.114 53.2458ZM149.401 50.9799L149.982 51.0178L150.109 49.0226L149.528 48.9847L149.401 50.9799ZM149.047 49.9684C148.995 51.0057 148.663 51.7874 148.095 52.3864L149.548 53.7629C150.488 52.772 150.972 51.5173 151.045 50.072L149.047 49.9684ZM148.105 52.3759C147.508 52.9882 146.779 53.3573 145.88 53.4861L146.168 55.4653C147.487 55.2763 148.623 54.7114 149.538 53.7733L148.105 52.3759ZM145.88 53.4861C144.419 53.6956 143.174 53.3639 142.073 52.4972L140.837 54.0666C142.384 55.2854 144.184 55.7496 146.168 55.4653L145.88 53.4861ZM142.08 52.5026C141.022 51.6538 140.312 50.3491 140.037 48.4544L138.057 48.7381C138.385 50.9997 139.281 52.8188 140.83 54.0612L142.08 52.5026ZM140.037 48.4544C139.759 46.5414 140.077 45.0829 140.866 43.9705L139.233 42.8123C138.076 44.4438 137.726 46.4551 138.057 48.7381L140.037 48.4544ZM140.871 43.9639C141.68 42.8024 142.77 42.1328 144.202 41.9275L143.915 39.9483C141.942 40.231 140.359 41.1971 139.228 42.819L140.871 43.9639ZM148.058 44.8197C147.867 43.5077 147.458 42.3779 146.694 41.6144C145.882 40.8026 144.815 40.5466 143.662 40.7118L143.949 42.6911C144.618 42.5953 145.006 42.7521 145.281 43.027C145.604 43.3502 145.915 43.9809 146.078 45.1034L148.058 44.8197ZM143.662 40.7118C142.32 40.9042 141.374 41.8112 140.77 43.0954L142.58 43.9488C142.996 43.0665 143.47 42.7598 143.949 42.6911L143.662 40.7118ZM140.764 43.1082C140.18 44.3969 140.023 45.8955 140.22 47.5534L142.206 47.3211C142.04 45.9196 142.191 44.8082 142.586 43.9361L140.764 43.1082ZM141.357 48.4268L147.326 47.5713L147.038 45.5921L141.069 46.4476L141.357 48.4268ZM148.182 46.5565C148.163 45.8564 148.123 45.2718 148.058 44.8197L146.078 45.1034C146.127 45.443 146.164 45.9385 146.182 46.607L148.182 46.5565Z" fill="#FF8B03"/>
<path d="M164.821 48.1076L159.714 38.3262C159.585 38.0781 159.389 38.0052 159.129 38.1074L157.815 38.622L157.566 38.1436L158.935 37.607C160.052 37.169 160.807 36.8092 161.199 36.5277L166.861 47.3724C166.972 47.585 167.157 47.6403 167.418 47.5381L168.732 47.0234L168.981 47.5018L163.561 49.6262L163.311 49.1477L164.624 48.6331C164.885 48.5309 164.951 48.3557 164.821 48.1076ZM157.799 34.5299C157.428 34.3767 157.149 34.1229 156.964 33.7685C156.779 33.4141 156.748 33.0743 156.87 32.749C157.001 32.3988 157.253 32.1506 157.625 32.0046C157.998 31.8586 158.37 31.8622 158.742 32.0154C159.123 32.1435 159.406 32.3848 159.591 32.7392C159.776 33.0936 159.803 33.446 159.671 33.7962C159.55 34.1215 159.302 34.3571 158.93 34.5031C158.557 34.6491 158.18 34.6581 157.799 34.5299Z" fill="#FF8B03"/>
<path d="M157.815 38.622L156.884 38.987L157.347 39.873L158.278 39.508L157.815 38.622ZM157.566 38.1436L157.103 37.2576L156.172 37.6226L156.634 38.5086L157.566 38.1436ZM161.199 36.5277L162.13 36.1627L161.537 35.0279L160.524 35.7567L161.199 36.5277ZM168.732 47.0234L169.663 46.6584L169.2 45.7724L168.269 46.1374L168.732 47.0234ZM168.981 47.5018L169.444 48.3878L170.375 48.0228L169.913 47.1368L168.981 47.5018ZM163.561 49.6262L162.629 49.9912L163.092 50.8772L164.023 50.5122L163.561 49.6262ZM163.311 49.1477L162.848 48.2617L161.917 48.6267L162.379 49.5127L163.311 49.1477ZM157.799 34.5299L157.432 35.4003L157.468 35.4151L157.505 35.4275L157.799 34.5299ZM156.87 32.749L155.884 32.3806L155.884 32.3806L156.87 32.749ZM158.742 32.0154L158.374 32.8857L158.41 32.9006L158.447 32.913L158.742 32.0154ZM165.752 47.7426L160.645 37.9612L158.783 38.6912L163.89 48.4727L165.752 47.7426ZM160.645 37.9612C160.509 37.7006 160.253 37.3694 159.802 37.2008C159.351 37.0322 158.94 37.114 158.666 37.2214L159.591 38.9934C159.578 38.9985 159.395 39.0657 159.139 38.97C158.883 38.8743 158.789 38.7037 158.783 38.6912L160.645 37.9612ZM158.666 37.2214L157.353 37.736L158.278 39.508L159.591 38.9934L158.666 37.2214ZM158.747 38.257L158.497 37.7786L156.634 38.5086L156.884 38.987L158.747 38.257ZM158.028 39.0296L159.397 38.493L158.472 36.721L157.103 37.2576L158.028 39.0296ZM159.397 38.493C160.514 38.0555 161.374 37.6578 161.873 37.2987L160.524 35.7567C160.24 35.9607 159.591 36.2825 158.472 36.721L159.397 38.493ZM160.267 36.8927L165.929 47.7374L167.792 47.0074L162.13 36.1627L160.267 36.8927ZM165.929 47.7374C166.076 48.019 166.358 48.3438 166.828 48.4835C167.26 48.6116 167.639 48.5188 167.881 48.4241L166.956 46.6521C166.956 46.6519 166.964 46.649 166.978 46.6452C166.992 46.6415 167.016 46.6363 167.048 46.633C167.112 46.6262 167.215 46.6265 167.338 46.663C167.623 46.7476 167.756 46.9384 167.792 47.0074L165.929 47.7374ZM167.881 48.4241L169.194 47.9094L168.269 46.1374L166.956 46.6521L167.881 48.4241ZM167.8 47.3884L168.05 47.8668L169.913 47.1368L169.663 46.6584L167.8 47.3884ZM168.519 46.6158L163.098 48.7402L164.023 50.5122L169.444 48.3878L168.519 46.6158ZM164.492 49.2612L164.242 48.7827L162.379 49.5127L162.629 49.9912L164.492 49.2612ZM163.773 50.0337L165.087 49.5191L164.162 47.7471L162.848 48.2617L163.773 50.0337ZM165.087 49.5191C165.361 49.4117 165.703 49.1984 165.855 48.7935C166.006 48.3885 165.888 48.0033 165.752 47.7426L163.89 48.4727C163.883 48.4601 163.797 48.2864 163.883 48.0567C163.969 47.8269 164.148 47.7522 164.162 47.7471L165.087 49.5191ZM158.167 33.6595C158.053 33.6127 157.97 33.5458 157.896 33.4035L156.033 34.1335C156.329 34.7 156.802 35.1408 157.432 35.4003L158.167 33.6595ZM157.896 33.4035C157.821 33.2614 157.829 33.1863 157.855 33.1174L155.884 32.3806C155.666 32.9623 155.737 33.5669 156.033 34.1335L157.896 33.4035ZM157.855 33.1174C157.898 33.0044 157.96 32.9409 158.088 32.8906L157.163 31.1186C156.546 31.3603 156.104 31.7931 155.884 32.3806L157.855 33.1174ZM158.088 32.8906C158.215 32.8407 158.287 32.8498 158.374 32.8857L159.109 31.145C158.453 30.8746 157.781 30.8765 157.163 31.1186L158.088 32.8906ZM158.447 32.913C158.536 32.9431 158.596 32.9832 158.659 33.1042L160.522 32.3742C160.215 31.7864 159.709 31.344 159.036 31.1177L158.447 32.913ZM158.659 33.1042C158.723 33.2263 158.728 33.3148 158.686 33.4278L160.657 34.1646C160.877 33.5771 160.829 32.9609 160.522 32.3742L158.659 33.1042ZM158.686 33.4278C158.66 33.4967 158.617 33.5586 158.467 33.6171L159.392 35.3891C159.988 35.1557 160.439 34.7463 160.657 34.1646L158.686 33.4278ZM158.467 33.6171C158.318 33.6758 158.211 33.6715 158.094 33.6323L157.505 35.4275C158.15 35.6446 158.797 35.6225 159.392 35.3891L158.467 33.6171Z" fill="#FF8B03"/>
<path d="M179.749 32.5073L179.024 31.756L178.274 31.0221C176.603 29.3864 175.147 29.0083 173.906 29.8878C173.368 30.2696 173.107 30.7313 173.125 31.2727C173.146 31.7886 173.37 32.2562 173.799 32.6756C174.227 33.095 174.664 33.4122 175.108 33.6272C175.045 34.0336 174.768 34.4104 174.279 34.7576C173.789 35.1047 173.194 34.9358 172.494 34.2508C171.794 33.5658 171.512 32.7657 171.647 31.8506C171.798 30.924 172.453 30.0499 173.613 29.2282C175.882 27.6197 178.188 27.9618 180.53 30.2546L184.922 34.5535C185.693 35.3084 186.323 35.5123 186.813 35.1651C187.042 35.0031 187.145 34.7734 187.122 34.4759C187.116 34.1669 186.992 33.8935 186.749 33.6559C186.506 33.4182 186.253 33.2119 185.99 33.0369L186.391 32.6442C186.671 32.8076 186.939 33.0151 187.196 33.2667C187.71 33.77 187.938 34.2958 187.878 34.8439C187.835 35.3805 187.528 35.8513 186.957 36.2564C186.385 36.6614 185.72 36.7955 184.961 36.6586C184.187 36.5078 183.394 36.0339 182.58 35.2371L182.194 34.8596C182.888 36.007 183.161 37.0184 183.014 37.894C182.867 38.7695 182.393 39.4908 181.593 40.0578C180.809 40.6133 179.958 40.8549 179.04 40.7827C178.124 40.6849 177.308 40.2865 176.594 39.5875C175.866 38.8745 175.607 37.9734 175.818 36.8843C176.014 35.7812 176.83 34.7205 178.267 33.7021C178.577 33.4823 179.136 33.1469 179.942 32.6961L179.749 32.5073ZM181.342 38.8617C182.028 38.3757 182.305 37.6132 182.172 36.5742C182.042 35.5097 181.412 34.3416 180.282 33.0699C180.104 33.1717 179.868 33.3267 179.574 33.535C178.268 34.4607 177.572 35.3638 177.486 36.2442C177.402 37.099 177.674 37.8339 178.303 38.449C178.717 38.8545 179.213 39.1056 179.79 39.2025C180.368 39.2993 180.885 39.1857 181.342 38.8617Z" fill="#FF8B03"/>
<path d="M179.749 32.5073L178.913 33.0657L178.922 33.0759L178.933 33.0859L179.749 32.5073ZM179.024 31.756L179.86 31.1976L179.85 31.1874L179.84 31.1774L179.024 31.756ZM173.125 31.2727L172.041 31.2736L172.041 31.2779L173.125 31.2727ZM175.108 33.6272L176.184 33.7685L176.279 33.1575L175.632 32.8445L175.108 33.6272ZM171.647 31.8506L170.572 31.704L170.57 31.7155L171.647 31.8506ZM187.122 34.4759L186.038 34.4661L186.038 34.4872L186.04 34.5083L187.122 34.4759ZM185.99 33.0369L185.158 32.4367L184.434 33.1456L185.33 33.7413L185.99 33.0369ZM186.391 32.6442L186.996 31.905L186.185 31.4307L185.559 32.044L186.391 32.6442ZM187.878 34.8439L186.798 34.7378L186.797 34.7483L186.796 34.7588L187.878 34.8439ZM184.961 36.6586L184.742 37.5421L184.751 37.5438L184.76 37.5455L184.961 36.6586ZM182.194 34.8596L183.011 34.281L181.229 35.2514L182.194 34.8596ZM183.014 37.894L181.94 37.7438L181.94 37.7438L183.014 37.894ZM179.04 40.7827L178.931 41.6827L178.949 41.6847L178.967 41.6861L179.04 40.7827ZM175.818 36.8843L176.889 37.0528L176.891 37.0416L175.818 36.8843ZM179.942 32.6961L180.561 33.4547L181.556 32.8984L180.758 32.1174L179.942 32.6961ZM182.172 36.5742L181.093 36.6424L181.094 36.6461L182.172 36.5742ZM180.282 33.0699L181.146 32.5414L180.51 31.8256L179.652 32.3168L180.282 33.0699ZM177.486 36.2442L178.567 36.3428L178.567 36.3424L177.486 36.2442ZM179.79 39.2025L179.605 40.092L179.605 40.092L179.79 39.2025ZM180.586 31.9489L179.86 31.1976L178.187 32.3144L178.913 33.0657L180.586 31.9489ZM179.84 31.1774L179.09 30.4434L177.458 31.6007L178.207 32.3346L179.84 31.1774ZM179.09 30.4434C178.201 29.5723 177.249 28.9118 176.225 28.6457C175.107 28.3556 174.06 28.5739 173.192 29.1888L174.62 30.5868C174.994 30.3221 175.295 30.2898 175.633 30.3777C176.065 30.4898 176.677 30.8362 177.458 31.6007L179.09 30.4434ZM173.192 29.1888C172.439 29.7225 172.013 30.4306 172.041 31.2736L174.21 31.2718C174.202 31.032 174.296 30.8168 174.62 30.5868L173.192 29.1888ZM172.041 31.2779C172.07 32.0154 172.399 32.6831 172.982 33.2542L174.615 32.097C174.341 31.8293 174.221 31.5617 174.21 31.2675L172.041 31.2779ZM172.982 33.2542C173.471 33.7333 174.003 34.1287 174.585 34.4098L175.632 32.8445C175.324 32.6957 174.982 32.4568 174.615 32.097L172.982 33.2542ZM174.033 33.4859C174.013 33.6114 173.921 33.806 173.565 34.0586L174.993 35.4566C175.616 35.0148 176.077 34.4558 176.184 33.7685L174.033 33.4859ZM173.565 34.0586C173.555 34.0653 173.585 34.042 173.655 34.0306C173.726 34.0188 173.778 34.0299 173.789 34.0328C173.791 34.0334 173.747 34.0208 173.656 33.9611C173.567 33.9021 173.451 33.8099 173.311 33.6722L171.678 34.8294C172.077 35.2205 172.562 35.5851 173.142 35.7497C173.818 35.9419 174.479 35.8207 174.993 35.4566L173.565 34.0586ZM173.311 33.6722C172.823 33.195 172.624 32.6573 172.723 31.9858L170.57 31.7155C170.4 32.8741 170.766 33.9365 171.678 34.8294L173.311 33.6722ZM172.722 31.9973C172.826 31.356 173.291 30.6612 174.327 29.9273L172.899 28.5292C171.616 29.4385 170.77 30.492 170.572 31.704L172.722 31.9973ZM174.327 29.9273C175.297 29.2395 176.133 29.0604 176.883 29.1718C177.678 29.2897 178.627 29.7689 179.714 30.8332L181.347 29.676C180.092 28.4475 178.716 27.6092 177.205 27.3851C175.65 27.1543 174.198 27.6084 172.899 28.5292L174.327 29.9273ZM179.714 30.8332L184.105 35.1321L185.738 33.9749L181.347 29.676L179.714 30.8332ZM184.105 35.1321C184.533 35.5514 185.032 35.9322 185.606 36.1178C185.911 36.2164 186.253 36.265 186.612 36.2193C186.971 36.1732 187.278 36.0405 187.527 35.8641L186.099 34.4661C186.099 34.4661 186.102 34.4641 186.108 34.4608C186.114 34.4575 186.123 34.4531 186.135 34.4484C186.159 34.4386 186.191 34.4297 186.227 34.4251C186.305 34.4151 186.35 34.4307 186.34 34.4273C186.322 34.4217 186.258 34.3967 186.146 34.3201C186.036 34.2448 185.9 34.1332 185.738 33.9749L184.105 35.1321ZM187.527 35.8641C188.054 35.4904 188.244 34.968 188.205 34.4435L186.04 34.5083C186.043 34.5552 186.034 34.5566 186.045 34.5323C186.05 34.5204 186.059 34.5066 186.07 34.4931C186.082 34.4797 186.092 34.4708 186.099 34.4661L187.527 35.8641ZM188.207 34.4857C188.197 33.9625 187.978 33.4806 187.566 33.0772L185.933 34.2345C186.006 34.3065 186.036 34.3713 186.038 34.4661L188.207 34.4857ZM187.566 33.0772C187.281 32.7986 186.976 32.549 186.651 32.3324L185.33 33.7413C185.53 33.8748 185.732 34.0378 185.933 34.2345L187.566 33.0772ZM186.823 33.6371L187.224 33.2444L185.559 32.044L185.158 32.4367L186.823 33.6371ZM185.786 33.3833C185.976 33.4944 186.175 33.6451 186.38 33.8454L188.013 32.6881C187.703 32.3851 187.365 32.1208 186.996 31.905L185.786 33.3833ZM186.38 33.8454C186.738 34.1956 186.826 34.481 186.798 34.7378L188.959 34.9501C189.049 34.1106 188.683 33.3445 188.013 32.6881L186.38 33.8454ZM186.796 34.7588C186.776 35.0134 186.639 35.2763 186.243 35.5574L187.671 36.9554C188.417 36.4264 188.895 35.7477 188.961 34.9291L186.796 34.7588ZM186.243 35.5574C185.927 35.7813 185.6 35.8509 185.162 35.7718L184.76 37.5455C185.839 37.7401 186.844 37.5415 187.671 36.9554L186.243 35.5574ZM185.18 35.7752C184.737 35.6888 184.137 35.3835 183.396 34.6585L181.763 35.8157C182.651 36.6843 183.638 37.3268 184.742 37.5421L185.18 35.7752ZM183.396 34.6585L183.011 34.281L181.378 35.4382L181.763 35.8157L183.396 34.6585ZM181.229 35.2514C181.863 36.3003 182.045 37.1165 181.94 37.7438L184.088 38.0442C184.277 36.9203 183.912 35.7136 183.159 34.4678L181.229 35.2514ZM181.94 37.7438C181.829 38.4039 181.483 38.9305 180.879 39.3588L182.307 40.7568C183.303 40.0511 183.904 39.1351 184.088 38.0442L181.94 37.7438ZM180.879 39.3588C180.281 39.7828 179.705 39.9259 179.112 39.8793L178.967 41.6861C180.211 41.7839 181.338 41.4438 182.307 40.7568L180.879 39.3588ZM179.148 39.8826C178.554 39.8191 177.978 39.5641 177.411 39.0089L175.778 40.1661C176.639 41.0088 177.694 41.5506 178.931 41.6827L179.148 39.8826ZM177.411 39.0089C176.937 38.5453 176.718 37.9345 176.889 37.0528L174.747 36.7159C174.496 38.0124 174.795 39.2036 175.778 40.1661L177.411 39.0089ZM176.891 37.0416C177.036 36.2254 177.657 35.3397 178.981 34.4011L177.553 33.0031C176.004 34.1013 174.992 35.337 174.745 36.727L176.891 37.0416ZM178.981 34.4011C179.242 34.2165 179.756 33.9053 180.561 33.4547L179.322 31.9374C178.516 32.3885 177.913 32.748 177.553 33.0031L178.981 34.4011ZM180.758 32.1174L180.565 31.9287L178.933 33.0859L179.125 33.2747L180.758 32.1174ZM182.056 39.5607C183.099 38.8217 183.406 37.7183 183.251 36.5024L181.094 36.6461C181.204 37.5081 180.957 37.9297 180.628 38.1627L182.056 39.5607ZM183.251 36.5061C183.093 35.2157 182.344 33.8892 181.146 32.5414L179.417 33.5985C180.48 34.794 180.991 35.8038 181.093 36.6424L183.251 36.5061ZM179.652 32.3168C179.431 32.4436 179.164 32.6209 178.86 32.836L180.288 34.234C180.573 34.0324 180.777 33.8997 180.911 33.823L179.652 32.3168ZM178.86 32.836C177.47 33.821 176.525 34.9192 176.405 36.1459L178.567 36.3424C178.619 35.8084 179.066 35.1005 180.288 34.234L178.86 32.836ZM176.405 36.1455C176.299 37.2234 176.649 38.208 177.486 39.0277L179.119 37.8704C178.7 37.4599 178.505 36.9745 178.567 36.3428L176.405 36.1455ZM177.486 39.0277C178.051 39.5806 178.764 39.951 179.605 40.092L179.975 38.3129C179.661 38.2602 179.383 38.1283 179.119 37.8704L177.486 39.0277ZM179.605 40.092C180.518 40.2452 181.363 40.052 182.056 39.5607L180.628 38.1627C180.407 38.3195 180.217 38.3535 179.975 38.3129L179.605 40.092Z" fill="#FF8B03"/>
</svg>
